<svg width="814" height="36" viewBox="0 0 814 36" fill="none" xmlns="http://www.w3.org/2000/svg">
<path fill-rule="evenodd" clip-rule="evenodd" d="M782.503 -12.0941C781.746 -12.0941 780.976 -12.2182 780.219 -12.4789C776.52 -13.7575 774.558 -17.792 775.837 -21.4913C777.116 -25.1906 781.15 -27.152 784.849 -25.8734C788.077 -24.7561 789.976 -21.541 789.567 -18.2886C791.255 -21.1065 794.731 -22.4596 797.958 -21.3424C801.658 -20.0637 803.619 -16.0293 802.34 -12.3299C801.062 -8.63063 797.027 -6.66925 793.328 -7.94787C792.571 -8.20856 791.888 -8.59339 791.292 -9.0527C792.285 -7.3396 792.546 -5.21684 791.851 -3.20581C790.572 0.481089 786.538 2.44247 782.838 1.17626C779.139 -0.102359 777.178 -4.13684 778.456 -7.83615C779.152 -9.8596 780.666 -11.3493 782.503 -12.0941ZM789.494 -11.2482L785.385 -12.6137L788.625 -15.444L789.494 -11.2482Z" fill="#D9D9D9"/>
<path fill-rule="evenodd" clip-rule="evenodd" d="M816.341 -1.82242C817.098 -1.82242 817.868 -1.69828 818.625 -1.43759C822.324 -0.158972 824.286 3.87551 823.007 7.57482C821.729 11.2741 817.694 13.2355 813.995 11.9569C810.767 10.8396 808.868 7.62448 809.278 4.37206C807.589 7.18999 804.113 8.54309 800.886 7.42585C797.187 6.14723 795.225 2.11275 796.504 -1.58656C797.782 -5.28587 801.817 -7.24725 805.516 -5.96863C806.273 -5.70794 806.956 -5.32311 807.552 -4.8638C806.559 -6.5769 806.298 -8.69966 806.993 -10.7107C808.272 -14.3976 812.307 -16.359 816.006 -15.0928C819.705 -13.8141 821.667 -9.77966 820.388 -6.08035C819.693 -4.0569 818.178 -2.56725 816.341 -1.82242ZM809.35 -2.66833L813.459 -1.30282L810.219 1.52753L809.35 -2.66833Z" fill="#D9D9D9"/>
<path fill-rule="evenodd" clip-rule="evenodd" d="M693.511 -14.4845C694.269 -14.4845 695.038 -14.3604 695.796 -14.0997C699.495 -12.8211 701.456 -8.7866 700.178 -5.08729C698.899 -1.38798 694.865 0.573399 691.165 -0.705223C687.938 -1.82246 686.038 -5.03763 686.448 -8.29005C684.76 -5.47212 681.284 -4.11902 678.056 -5.23626C674.357 -6.51488 672.396 -10.5494 673.674 -14.2487C674.953 -17.948 678.987 -19.9094 682.687 -18.6307C683.444 -18.37 684.127 -17.9852 684.722 -17.5259C683.729 -19.239 683.469 -21.3618 684.164 -23.3728C685.442 -27.0597 689.477 -29.0211 693.176 -27.7549C696.876 -26.4763 698.837 -22.4418 697.558 -18.7425C696.863 -16.719 695.349 -15.2294 693.511 -14.4845ZM686.521 -15.3304L690.63 -13.9649L687.39 -11.1346L686.521 -15.3304Z" fill="#D9D9D9"/>
<path fill-rule="evenodd" clip-rule="evenodd" d="M708.891 -7.71322C708.134 -7.71322 707.364 -7.83736 706.607 -8.09805C702.907 -9.37667 700.946 -13.4112 702.225 -17.1105C703.503 -20.8098 707.538 -22.7712 711.237 -21.4925C714.465 -20.3753 716.364 -17.1601 715.954 -13.9077C717.643 -16.7256 721.119 -18.0787 724.346 -16.9615C728.045 -15.6829 730.007 -11.6484 728.728 -7.94909C727.45 -4.24978 723.415 -2.28839 719.716 -3.56702C718.959 -3.8277 718.276 -4.21254 717.68 -4.67184C718.673 -2.95874 718.934 -0.835982 718.239 1.17505C716.96 4.86195 712.925 6.82333 709.226 5.55712C705.527 4.2785 703.565 0.244018 704.844 -3.45529C705.539 -5.47874 707.054 -6.9684 708.891 -7.71322ZM715.881 -6.86731L711.773 -8.23283L715.013 -11.0632L715.881 -6.86731Z" fill="#D9D9D9"/>
<path fill-rule="evenodd" clip-rule="evenodd" d="M742.729 2.55795C743.486 2.55795 744.256 2.68209 745.013 2.94278C748.712 4.2214 750.674 8.25588 749.395 11.9552C748.116 15.6545 744.082 17.6159 740.383 16.3373C737.155 15.22 735.256 12.0048 735.665 8.75243C733.977 11.5704 730.501 12.9235 727.274 11.8062C723.574 10.5276 721.613 6.49312 722.891 2.79381C724.17 -0.905498 728.205 -2.86688 731.904 -1.58826C732.661 -1.32757 733.344 -0.942738 733.94 -0.483429C732.947 -2.19653 732.686 -4.31929 733.381 -6.33033C734.66 -10.0172 738.694 -11.9786 742.394 -10.7124C746.093 -9.43377 748.054 -5.39929 746.776 -1.69998C746.08 0.323468 744.566 1.81312 742.729 2.55795ZM735.738 1.71204L739.847 3.07755L736.607 5.9079L735.738 1.71204Z" fill="#D9D9D9"/>
<path fill-rule="evenodd" clip-rule="evenodd" d="M758.108 9.32975C757.35 9.32975 756.581 9.20561 755.824 8.94492C752.124 7.6663 750.163 3.63182 751.442 -0.0674925C752.72 -3.7668 756.755 -5.72818 760.454 -4.44956C763.682 -3.33232 765.581 -0.117152 765.171 3.13526C766.859 0.31733 770.335 -1.03577 773.563 0.0814724C777.262 1.36009 779.224 5.39457 777.945 9.09388C776.666 12.7932 772.632 14.7546 768.933 13.476C768.175 13.2153 767.493 12.8304 766.897 12.3711C767.89 14.0842 768.15 16.207 767.455 18.218C766.177 21.9049 762.142 23.8663 758.443 22.6001C754.744 21.3215 752.782 17.287 754.061 13.5877C754.756 11.5642 756.27 10.0746 758.108 9.32975ZM765.098 10.1757L760.989 8.81014L764.229 5.97979L765.098 10.1757Z" fill="#D9D9D9"/>
<path fill-rule="evenodd" clip-rule="evenodd" d="M791.946 19.6009C792.703 19.6009 793.472 19.7251 794.23 19.9857C797.929 21.2644 799.89 25.2988 798.612 28.9982C797.333 32.6975 793.299 34.6588 789.599 33.3802C786.372 32.263 784.472 29.0478 784.882 25.7954C783.194 28.6133 779.718 29.9664 776.49 28.8492C772.791 27.5706 770.83 23.5361 772.108 19.8368C773.387 16.1375 777.421 14.1761 781.121 15.4547C781.878 15.7154 782.561 16.1002 783.157 16.5595C782.163 14.8464 781.903 12.7237 782.598 10.7126C783.877 7.02575 787.911 5.06437 791.61 6.33057C795.31 7.6092 797.271 11.6437 795.992 15.343C795.297 17.3664 793.783 18.8561 791.946 19.6009ZM784.955 18.755L789.064 20.1205L785.824 22.9509L784.955 18.755Z" fill="#D9D9D9"/>
<path fill-rule="evenodd" clip-rule="evenodd" d="M807.325 26.3727C806.568 26.3727 805.798 26.2486 805.041 25.9879C801.342 24.7093 799.38 20.6748 800.659 16.9755C801.937 13.2762 805.972 11.3148 809.671 12.5934C812.899 13.7106 814.798 16.9258 814.388 20.1782C816.077 17.3603 819.553 16.0072 822.78 17.1244C826.479 18.4031 828.441 22.4375 827.162 26.1369C825.884 29.8362 821.849 31.7975 818.15 30.5189C817.393 30.2582 816.71 29.8734 816.114 29.4141C817.107 31.1272 817.368 33.25 816.673 35.261C815.394 38.9479 811.359 40.9093 807.66 39.6431C803.961 38.3644 801.999 34.33 803.278 30.6306C803.973 28.6072 805.488 27.1175 807.325 26.3727ZM814.316 27.2186L810.207 25.8531L813.447 23.0228L814.316 27.2186Z" fill="#D9D9D9"/>
<path fill-rule="evenodd" clip-rule="evenodd" d="M616.38 -9.87777C615.622 -9.87777 614.853 -10.0019 614.096 -10.2626C610.396 -11.5412 608.435 -15.5757 609.713 -19.275C610.992 -22.9743 615.027 -24.9357 618.726 -23.6571C621.953 -22.5398 623.853 -19.3247 623.443 -16.0723C625.131 -18.8902 628.607 -20.2433 631.835 -19.126C635.534 -17.8474 637.496 -13.8129 636.217 -10.1136C634.938 -6.41433 630.904 -4.45295 627.205 -5.73157C626.447 -5.99226 625.765 -6.37709 625.169 -6.8364C626.162 -5.12329 626.422 -3.00053 625.727 -0.989498C624.449 2.6974 620.414 4.65878 616.715 3.39257C613.016 2.11395 611.054 -1.92053 612.333 -5.61984C613.028 -7.64329 614.542 -9.13295 616.38 -9.87777ZM623.37 -9.03186L619.261 -10.3974L622.501 -13.2277L623.37 -9.03186Z" fill="#D9D9D9"/>
<path fill-rule="evenodd" clip-rule="evenodd" d="M650.217 0.393887C650.975 0.393887 651.744 0.518026 652.502 0.778716C656.201 2.05734 658.162 6.09182 656.884 9.79113C655.605 13.4904 651.571 15.4518 647.871 14.1732C644.644 13.056 642.744 9.84078 643.154 6.58837C641.466 9.4063 637.99 10.7594 634.762 9.64216C631.063 8.36354 629.102 4.32906 630.38 0.62975C631.659 -3.06956 635.693 -5.03094 639.393 -3.75232C640.15 -3.49163 640.833 -3.1068 641.429 -2.64749C640.435 -4.36059 640.175 -6.48335 640.87 -8.49439C642.149 -12.1813 646.183 -14.1427 649.882 -12.8765C653.582 -11.5978 655.543 -7.56335 654.264 -3.86404C653.569 -1.84059 652.055 -0.35094 650.217 0.393887ZM643.227 -0.452025L647.336 0.913492L644.096 3.74384L643.227 -0.452025Z" fill="#D9D9D9"/>
<path fill-rule="evenodd" clip-rule="evenodd" d="M665.597 7.16519C664.84 7.16519 664.07 7.04106 663.313 6.78037C659.614 5.50175 657.652 1.46727 658.931 -2.23204C660.209 -5.93135 664.244 -7.89273 667.943 -6.61411C671.171 -5.49687 673.07 -2.2817 672.66 0.970712C674.349 -1.84722 677.825 -3.20032 681.052 -2.08308C684.751 -0.804459 686.713 3.23002 685.434 6.92933C684.156 10.6286 680.121 12.59 676.422 11.3114C675.665 11.0507 674.982 10.6659 674.386 10.2066C675.379 11.9197 675.64 14.0424 674.945 16.0535C673.666 19.7404 669.631 21.7017 665.932 20.4355C662.233 19.1569 660.271 15.1224 661.55 11.4231C662.245 9.39968 663.76 7.91002 665.597 7.16519ZM672.588 8.01111L668.479 6.64559L671.719 3.81524L672.588 8.01111Z" fill="#D9D9D9"/>
<path fill-rule="evenodd" clip-rule="evenodd" d="M699.435 17.4369C700.192 17.4369 700.962 17.561 701.719 17.8217C705.418 19.1003 707.38 23.1348 706.101 26.8341C704.822 30.5334 700.788 32.4948 697.089 31.2162C693.861 30.0989 691.962 26.8838 692.371 23.6313C690.683 26.4493 687.207 27.8024 683.98 26.6851C680.28 25.4065 678.319 21.372 679.598 17.6727C680.876 13.9734 684.911 12.012 688.61 13.2906C689.367 13.5513 690.05 13.9362 690.646 14.3955C689.653 12.6824 689.392 10.5596 690.087 8.54858C691.366 4.86168 695.4 2.90031 699.1 4.16651C702.799 5.44513 704.76 9.47962 703.482 13.1789C702.786 15.2024 701.272 16.692 699.435 17.4369ZM692.444 16.5909L696.553 17.9565L693.313 20.7868L692.444 16.5909Z" fill="#202123"/>
<path fill-rule="evenodd" clip-rule="evenodd" d="M714.814 24.2082C714.057 24.2082 713.287 24.084 712.53 23.8233C708.83 22.5447 706.869 18.5102 708.148 14.8109C709.426 11.1116 713.461 9.15023 717.16 10.4289C720.388 11.5461 722.287 14.7613 721.877 18.0137C723.565 15.1957 727.041 13.8426 730.269 14.9599C733.968 16.2385 735.93 20.273 734.651 23.9723C733.372 27.6716 729.338 29.633 725.639 28.3544C724.881 28.0937 724.199 27.7089 723.603 27.2495C724.596 28.9626 724.857 31.0854 724.161 33.0964C722.883 36.7833 718.848 38.7447 715.149 37.4785C711.45 36.1999 709.488 32.1654 710.767 28.4661C711.462 26.4426 712.977 24.953 714.814 24.2082ZM721.804 25.0541L717.695 23.6886L720.935 20.8582L721.804 25.0541Z" fill="#D9D9D9"/>
<path fill-rule="evenodd" clip-rule="evenodd" d="M748.652 34.4798C749.409 34.4798 750.178 34.604 750.936 34.8647C754.635 36.1433 756.596 40.1778 755.318 43.8771C754.039 47.5764 750.005 49.5378 746.305 48.2591C743.078 47.1419 741.178 43.9267 741.588 40.6743C739.9 43.4922 736.424 44.8453 733.196 43.7281C729.497 42.4495 727.536 38.415 728.814 34.7157C730.093 31.0164 734.127 29.055 737.827 30.3336C738.584 30.5943 739.267 30.9791 739.863 31.4384C738.869 29.7253 738.609 27.6026 739.304 25.5915C740.583 21.9047 744.617 19.9433 748.316 21.2095C752.016 22.4881 753.977 26.5226 752.698 30.2219C752.003 32.2453 750.489 33.735 748.652 34.4798ZM741.661 33.6339L745.77 34.9994L742.53 37.8298L741.661 33.6339Z" fill="#D9D9D9"/>
<path fill-rule="evenodd" clip-rule="evenodd" d="M764.031 41.2511C763.274 41.2511 762.504 41.127 761.747 40.8663C758.048 39.5877 756.086 35.5532 757.365 31.8539C758.643 28.1546 762.678 26.1932 766.377 27.4718C769.605 28.5891 771.504 31.8042 771.095 35.0566C772.783 32.2387 776.259 30.8856 779.486 32.0029C783.186 33.2815 785.147 37.316 783.868 41.0153C782.59 44.7146 778.555 46.676 774.856 45.3973C774.099 45.1367 773.416 44.7518 772.82 44.2925C773.813 46.0056 774.074 48.1284 773.379 50.1394C772.1 53.8263 768.066 55.7877 764.366 54.5215C760.667 53.2429 758.706 49.2084 759.984 45.5091C760.679 43.4856 762.194 41.996 764.031 41.2511ZM771.022 42.097L766.913 40.7315L770.153 37.9012L771.022 42.097Z" fill="#D9D9D9"/>
<path fill-rule="evenodd" clip-rule="evenodd" d="M797.869 51.5228C798.626 51.5228 799.396 51.6469 800.153 51.9076C803.852 53.1862 805.814 57.2207 804.535 60.92C803.256 64.6193 799.222 66.5807 795.523 65.3021C792.295 64.1849 790.396 60.9697 790.805 57.7173C789.117 60.5352 785.641 61.8883 782.414 60.7711C778.714 59.4924 776.753 55.458 778.032 51.7587C779.31 48.0593 783.345 46.098 787.044 47.3766C787.801 47.6373 788.484 48.0221 789.08 48.4814C788.087 46.7683 787.826 44.6456 788.521 42.6345C789.8 38.9476 793.834 36.9862 797.534 38.2524C801.233 39.5311 803.194 43.5656 801.916 47.2649C801.221 49.2883 799.706 50.778 797.869 51.5228ZM790.878 50.6769L794.987 52.0424L791.747 54.8727L790.878 50.6769Z" fill="#D9D9D9"/>
<path fill-rule="evenodd" clip-rule="evenodd" d="M527.388 -12.2687C528.146 -12.2687 528.915 -12.1446 529.673 -11.8839C533.372 -10.6053 535.333 -6.57078 534.055 -2.87147C532.776 0.827838 528.741 2.78922 525.042 1.5106C521.815 0.393357 519.915 -2.82181 520.325 -6.07423C518.637 -3.2563 515.161 -1.9032 511.933 -3.02044C508.234 -4.29906 506.273 -8.33354 507.551 -12.0328C508.83 -15.7322 512.864 -17.6935 516.564 -16.4149C517.321 -16.1542 518.004 -15.7694 518.599 -15.3101C517.606 -17.0232 517.346 -19.146 518.041 -21.157C519.319 -24.8439 523.354 -26.8053 527.053 -25.5391C530.753 -24.2604 532.714 -20.226 531.435 -16.5266C530.74 -14.5032 529.226 -13.0135 527.388 -12.2687ZM520.398 -13.1146L524.507 -11.7491L521.267 -8.91876L520.398 -13.1146Z" fill="#D9D9D9"/>
<path fill-rule="evenodd" clip-rule="evenodd" d="M542.767 -5.4974C542.01 -5.4974 541.24 -5.62154 540.483 -5.88223C536.784 -7.16085 534.823 -11.1953 536.101 -14.8946C537.38 -18.594 541.414 -20.5553 545.114 -19.2767C548.341 -18.1595 550.24 -14.9443 549.831 -11.6919C551.519 -14.5098 554.995 -15.8629 558.223 -14.7457C561.922 -13.4671 563.883 -9.43258 562.605 -5.73327C561.326 -2.03396 557.292 -0.0725743 553.592 -1.35119C552.835 -1.61188 552.152 -1.99671 551.556 -2.45602C552.549 -0.742921 552.81 1.37984 552.115 3.39087C550.836 7.07777 546.802 9.03915 543.103 7.77294C539.403 6.49432 537.442 2.45984 538.72 -1.23947C539.416 -3.26292 540.93 -4.75258 542.767 -5.4974ZM549.758 -4.65149L545.649 -6.01701L548.889 -8.84735L549.758 -4.65149Z" fill="#D9D9D9"/>
<path fill-rule="evenodd" clip-rule="evenodd" d="M576.605 4.77426C577.362 4.77426 578.132 4.8984 578.889 5.15909C582.589 6.43771 584.55 10.4722 583.271 14.1715C581.993 17.8708 577.958 19.8322 574.259 18.5536C571.031 17.4363 569.132 14.2212 569.542 10.9687C567.853 13.7867 564.378 15.1398 561.15 14.0225C557.451 12.7439 555.489 8.70943 556.768 5.01012C558.047 1.31081 562.081 -0.65057 565.78 0.62805C566.538 0.88874 567.22 1.27357 567.816 1.73288C566.823 0.0197767 566.562 -2.10298 567.258 -4.11402C568.536 -7.80091 572.571 -9.76229 576.27 -8.49609C579.969 -7.21747 581.931 -3.18298 580.652 0.516327C579.957 2.53978 578.442 4.02943 576.605 4.77426ZM569.615 3.92835L573.724 5.29386L570.484 8.12421L569.615 3.92835Z" fill="#D9D9D9"/>
<path fill-rule="evenodd" clip-rule="evenodd" d="M591.985 11.5456C591.227 11.5456 590.458 11.4214 589.701 11.1607C586.001 9.88212 584.04 5.84764 585.318 2.14833C586.597 -1.55098 590.632 -3.51236 594.331 -2.23374C597.558 -1.1165 599.458 2.09867 599.048 5.35108C600.736 2.53315 604.212 1.18005 607.44 2.29729C611.139 3.57591 613.101 7.61039 611.822 11.3097C610.543 15.009 606.509 16.9704 602.809 15.6918C602.052 15.4311 601.369 15.0463 600.774 14.5869C601.767 16.3 602.027 18.4228 601.332 20.4338C600.054 24.1207 596.019 26.0821 592.32 24.8159C588.621 23.5373 586.659 19.5028 587.938 15.8035C588.633 13.78 590.147 12.2904 591.985 11.5456ZM598.975 12.3915L594.866 11.026L598.106 8.19561L598.975 12.3915Z" fill="#D9D9D9"/>
<path fill-rule="evenodd" clip-rule="evenodd" d="M625.822 21.8172C626.58 21.8172 627.349 21.9414 628.107 22.2021C631.806 23.4807 633.767 27.5152 632.489 31.2145C631.21 34.9138 627.176 36.8752 623.476 35.5965C620.249 34.4793 618.349 31.2641 618.759 28.0117C617.071 30.8296 613.595 32.1827 610.367 31.0655C606.668 29.7869 604.707 25.7524 605.985 22.0531C607.264 18.3538 611.298 16.3924 614.998 17.671C615.755 17.9317 616.438 18.3165 617.033 18.7758C616.04 17.0627 615.78 14.94 616.475 12.929C617.753 9.24206 621.788 7.28068 625.487 8.54688C629.187 9.8255 631.148 13.86 629.869 17.5593C629.174 19.5827 627.66 21.0724 625.822 21.8172ZM618.832 20.9713L622.941 22.3368L619.701 25.1672L618.832 20.9713Z" fill="#D9D9D9"/>
<path fill-rule="evenodd" clip-rule="evenodd" d="M641.201 28.5885C640.444 28.5885 639.675 28.4644 638.917 28.2037C635.218 26.9251 633.257 22.8906 634.535 19.1913C635.814 15.492 639.848 13.5306 643.548 14.8092C646.775 15.9265 648.675 19.1416 648.265 22.3941C649.953 19.5761 653.429 18.223 656.657 19.3403C660.356 20.6189 662.317 24.6534 661.039 28.3527C659.76 32.052 655.726 34.0134 652.026 32.7347C651.269 32.4741 650.586 32.0892 649.99 31.6299C650.984 33.343 651.244 35.4658 650.549 37.4768C649.27 41.1637 645.236 43.1251 641.537 41.8589C637.837 40.5803 635.876 36.5458 637.155 32.8465C637.85 30.823 639.364 29.3334 641.201 28.5885ZM648.192 29.4344L644.083 28.0689L647.323 25.2386L648.192 29.4344Z" fill="#D9D9D9"/>
<path fill-rule="evenodd" clip-rule="evenodd" d="M675.039 38.8602C675.796 38.8602 676.566 38.9843 677.323 39.245C681.023 40.5236 682.984 44.5581 681.705 48.2574C680.427 51.9567 676.392 53.9181 672.693 52.6395C669.465 51.5223 667.566 48.3071 667.976 45.0547C666.288 47.8726 662.812 49.2257 659.584 48.1085C655.885 46.8298 653.923 42.7954 655.202 39.0961C656.481 35.3967 660.515 33.4354 664.214 34.714C664.972 34.9747 665.654 35.3595 666.25 35.8188C665.257 34.1057 664.996 31.983 665.692 29.9719C666.97 26.285 671.005 24.3236 674.704 25.5899C678.403 26.8685 680.365 30.903 679.086 34.6023C678.391 36.6257 676.876 38.1154 675.039 38.8602ZM668.049 38.0143L672.158 39.3798L668.918 42.2101L668.049 38.0143Z" fill="#D9D9D9"/>
<path fill-rule="evenodd" clip-rule="evenodd" d="M690.419 45.6315C689.662 45.6315 688.892 45.5074 688.135 45.2467C684.435 43.9681 682.474 39.9336 683.753 36.2343C685.031 32.535 689.066 30.5736 692.765 31.8522C695.993 32.9694 697.892 36.1846 697.482 39.437C699.17 36.6191 702.646 35.266 705.874 36.3832C709.573 37.6618 711.535 41.6963 710.256 45.3956C708.977 49.095 704.943 51.0563 701.244 49.7777C700.486 49.517 699.804 49.1322 699.208 48.6729C700.201 50.386 700.462 52.5087 699.766 54.5198C698.488 58.2067 694.453 60.1681 690.754 58.9018C687.055 57.6232 685.093 53.5887 686.372 49.8894C687.067 47.866 688.582 46.3763 690.419 45.6315ZM697.409 46.4774L693.3 45.1119L696.54 42.2816L697.409 46.4774Z" fill="#D9D9D9"/>
<path fill-rule="evenodd" clip-rule="evenodd" d="M434.877 -14.4328C435.634 -14.4328 436.404 -14.3086 437.161 -14.0479C440.86 -12.7693 442.821 -8.73485 441.543 -5.03553C440.264 -1.33622 436.23 0.625157 432.53 -0.653465C429.303 -1.77071 427.404 -4.98588 427.813 -8.23829C426.125 -5.42036 422.649 -4.06726 419.421 -5.1845C415.722 -6.46312 413.761 -10.4976 415.039 -14.1969C416.318 -17.8962 420.353 -19.8576 424.052 -18.579C424.809 -18.3183 425.492 -17.9335 426.088 -17.4742C425.095 -19.1873 424.834 -21.31 425.529 -23.321C426.808 -27.0079 430.842 -28.9693 434.541 -27.7031C438.241 -26.4245 440.202 -22.39 438.924 -18.6907C438.228 -16.6673 436.714 -15.1776 434.877 -14.4328ZM427.886 -15.2787L431.995 -13.9132L428.755 -11.0828L427.886 -15.2787Z" fill="#D9D9D9"/>
<path fill-rule="evenodd" clip-rule="evenodd" d="M450.256 -7.66098C449.499 -7.66098 448.729 -7.78512 447.972 -8.04581C444.273 -9.32443 442.311 -13.3589 443.59 -17.0582C444.869 -20.7575 448.903 -22.7189 452.602 -21.4403C455.83 -20.323 457.729 -17.1079 457.32 -13.8555C459.008 -16.6734 462.484 -18.0265 465.711 -16.9093C469.411 -15.6306 471.372 -11.5962 470.093 -7.89684C468.815 -4.19753 464.78 -2.23615 461.081 -3.51477C460.324 -3.77546 459.641 -4.16029 459.045 -4.6196C460.038 -2.9065 460.299 -0.783736 459.604 1.2273C458.325 4.91419 454.291 6.87557 450.591 5.60937C446.892 4.33075 444.931 0.296264 446.209 -3.40305C446.904 -5.42649 448.419 -6.91615 450.256 -7.66098ZM457.247 -6.81507L453.138 -8.18058L456.378 -11.0109L457.247 -6.81507Z" fill="#D9D9D9"/>
<path fill-rule="evenodd" clip-rule="evenodd" d="M484.094 2.6102C484.851 2.6102 485.621 2.73433 486.378 2.99502C490.077 4.27365 492.039 8.30812 490.76 12.0074C489.482 15.7067 485.447 17.6681 481.748 16.3895C478.52 15.2723 476.621 12.0571 477.03 8.80468C475.342 11.6226 471.866 12.9757 468.639 11.8585C464.939 10.5798 462.978 6.54537 464.257 2.84606C465.535 -0.853252 469.57 -2.81463 473.269 -1.53601C474.026 -1.27532 474.709 -0.890492 475.305 -0.431183C474.312 -2.14429 474.051 -4.26705 474.746 -6.27808C476.025 -9.96498 480.059 -11.9264 483.759 -10.6601C487.458 -9.38153 489.419 -5.34704 488.141 -1.64774C487.446 0.375714 485.931 1.86537 484.094 2.6102ZM477.103 1.76428L481.212 3.1298L477.972 5.96015L477.103 1.76428Z" fill="#D9D9D9"/>
<path fill-rule="evenodd" clip-rule="evenodd" d="M499.473 9.38199C498.716 9.38199 497.946 9.25785 497.189 8.99716C493.49 7.71854 491.528 3.68406 492.807 -0.0152464C494.085 -3.71456 498.12 -5.67594 501.819 -4.39732C505.047 -3.28008 506.946 -0.0649058 506.536 3.18751C508.225 0.369577 511.701 -0.983522 514.928 0.133718C518.627 1.41234 520.589 5.44682 519.31 9.14613C518.032 12.8454 513.997 14.8068 510.298 13.5282C509.541 13.2675 508.858 12.8827 508.262 12.4234C509.255 14.1365 509.516 16.2592 508.821 18.2703C507.542 21.9572 503.507 23.9185 499.808 22.6523C496.109 21.3737 494.147 17.3392 495.426 13.6399C496.121 11.6165 497.636 10.1268 499.473 9.38199ZM506.464 10.2279L502.355 8.86239L505.595 6.03204L506.464 10.2279Z" fill="#D9D9D9"/>
<path fill-rule="evenodd" clip-rule="evenodd" d="M533.311 19.6532C534.068 19.6532 534.838 19.7773 535.595 20.038C539.294 21.3166 541.256 25.3511 539.977 29.0504C538.698 32.7497 534.664 34.7111 530.965 33.4325C527.737 32.3152 525.838 29.1001 526.247 25.8476C524.559 28.6656 521.083 30.0187 517.856 28.9014C514.156 27.6228 512.195 23.5883 513.474 19.889C514.752 16.1897 518.787 14.2283 522.486 15.507C523.243 15.7676 523.926 16.1525 524.522 16.6118C523.529 14.8987 523.268 12.7759 523.963 10.7649C525.242 7.07799 529.276 5.11661 532.976 6.38282C536.675 7.66144 538.636 11.6959 537.358 15.3952C536.662 17.4187 535.148 18.9083 533.311 19.6532ZM526.32 18.8073L530.429 20.1728L527.189 23.0031L526.32 18.8073Z" fill="#D9D9D9"/>
<path fill-rule="evenodd" clip-rule="evenodd" d="M548.69 26.4245C547.933 26.4245 547.163 26.3003 546.406 26.0396C542.707 24.761 540.745 20.7265 542.024 17.0272C543.303 13.3279 547.337 11.3665 551.036 12.6452C554.264 13.7624 556.163 16.9776 555.754 20.23C557.442 17.4121 560.918 16.059 564.145 17.1762C567.845 18.4548 569.806 22.4893 568.527 26.1886C567.249 29.8879 563.214 31.8493 559.515 30.5707C558.758 30.31 558.075 29.9252 557.479 29.4659C558.472 31.179 558.733 33.3017 558.038 35.3127C556.759 38.9996 552.725 40.961 549.025 39.6948C545.326 38.4162 543.365 34.3817 544.643 30.6824C545.339 28.659 546.853 27.1693 548.69 26.4245ZM555.681 27.2704L551.572 25.9049L554.812 23.0745L555.681 27.2704Z" fill="#D9D9D9"/>
<path fill-rule="evenodd" clip-rule="evenodd" d="M582.528 36.6961C583.285 36.6961 584.055 36.8203 584.812 37.081C588.511 38.3596 590.473 42.3941 589.194 46.0934C587.916 49.7927 583.881 51.7541 580.182 50.4754C576.954 49.3582 575.055 46.143 575.465 42.8906C573.776 45.7085 570.3 47.0616 567.073 45.9444C563.374 44.6658 561.412 40.6313 562.691 36.932C563.969 33.2327 568.004 31.2713 571.703 32.5499C572.46 32.8106 573.143 33.1954 573.739 33.6548C572.746 31.9417 572.485 29.8189 573.18 27.8079C574.459 24.121 578.494 22.1596 582.193 23.4258C585.892 24.7044 587.854 28.7389 586.575 32.4382C585.88 34.4617 584.365 35.9513 582.528 36.6961ZM575.537 35.8502L579.646 37.2157L576.406 40.0461L575.537 35.8502Z" fill="#D9D9D9"/>
<path fill-rule="evenodd" clip-rule="evenodd" d="M597.907 43.4674C597.15 43.4674 596.38 43.3433 595.623 43.0826C591.924 41.804 589.962 37.7695 591.241 34.0702C592.519 30.3709 596.554 28.4095 600.253 29.6881C603.481 30.8054 605.38 34.0205 604.97 37.273C606.659 34.455 610.135 33.1019 613.362 34.2192C617.062 35.4978 619.023 39.5323 617.744 43.2316C616.466 46.9309 612.431 48.8923 608.732 47.6136C607.975 47.353 607.292 46.9681 606.696 46.5088C607.689 48.2219 607.95 50.3447 607.255 52.3557C605.976 56.0426 601.942 58.004 598.242 56.7378C594.543 55.4592 592.582 51.4247 593.86 47.7254C594.555 45.7019 596.07 44.2123 597.907 43.4674ZM604.898 44.3134L600.789 42.9478L604.029 40.1175L604.898 44.3134Z" fill="#D9D9D9"/>
<path fill-rule="evenodd" clip-rule="evenodd" d="M631.745 53.7391C632.502 53.7391 633.272 53.8632 634.029 54.1239C637.728 55.4026 639.69 59.437 638.411 63.1363C637.132 66.8357 633.098 68.797 629.399 67.5184C626.171 66.4012 624.272 63.186 624.681 59.9336C622.993 62.7515 619.517 64.1046 616.29 62.9874C612.59 61.7088 610.629 57.6743 611.908 53.975C613.186 50.2757 617.221 48.3143 620.92 49.5929C621.677 49.8536 622.36 50.2384 622.956 50.6977C621.963 48.9846 621.702 46.8619 622.397 44.8508C623.676 41.1639 627.71 39.2026 631.41 40.4688C635.109 41.7474 637.07 45.7819 635.792 49.4812C635.097 51.5046 633.582 52.9943 631.745 53.7391ZM624.754 52.8932L628.863 54.2587L625.623 57.0891L624.754 52.8932Z" fill="#D9D9D9"/>
<path fill-rule="evenodd" clip-rule="evenodd" d="M361.264 -10.0524C362.022 -10.0524 362.791 -9.92826 363.548 -9.66757C367.248 -8.38895 369.209 -4.35447 367.931 -0.655164C366.652 3.04415 362.617 5.00553 358.918 3.72691C355.691 2.60967 353.791 -0.605504 354.201 -3.85792C352.513 -1.03999 349.037 0.313112 345.809 -0.804129C342.11 -2.08275 340.148 -6.11723 341.427 -9.81654C342.706 -13.5158 346.74 -15.4772 350.44 -14.1986C351.197 -13.9379 351.88 -13.5531 352.475 -13.0938C351.482 -14.8069 351.222 -16.9296 351.917 -18.9407C353.195 -22.6276 357.23 -24.589 360.929 -23.3227C364.628 -22.0441 366.59 -18.0096 365.311 -14.3103C364.616 -12.2869 363.102 -10.7972 361.264 -10.0524ZM354.274 -10.8983L358.383 -9.5328L355.143 -6.70245L354.274 -10.8983Z" fill="#D9D9D9"/>
<path fill-rule="evenodd" clip-rule="evenodd" d="M376.644 -3.28109C375.887 -3.28109 375.117 -3.40523 374.36 -3.66592C370.66 -4.94454 368.699 -8.97902 369.978 -12.6783C371.256 -16.3776 375.291 -18.339 378.99 -17.0604C382.218 -15.9432 384.117 -12.728 383.707 -9.47558C385.396 -12.2935 388.871 -13.6466 392.099 -12.5294C395.798 -11.2507 397.76 -7.21627 396.481 -3.51696C395.202 0.182353 391.168 2.14373 387.469 0.865114C386.711 0.604424 386.029 0.219594 385.433 -0.239716C386.426 1.47339 386.687 3.59615 385.991 5.60718C384.713 9.29408 380.678 11.2555 376.979 9.98925C373.28 8.71063 371.318 4.67615 372.597 0.976837C373.292 -1.04661 374.807 -2.53627 376.644 -3.28109ZM383.634 -2.43518L379.525 -3.8007L382.765 -6.63105L383.634 -2.43518Z" fill="#D9D9D9"/>
<path fill-rule="evenodd" clip-rule="evenodd" d="M410.482 6.99057C411.239 6.99057 412.009 7.11471 412.766 7.3754C416.465 8.65402 418.426 12.6885 417.148 16.3878C415.869 20.0871 411.835 22.0485 408.135 20.7699C404.908 19.6526 403.009 16.4375 403.418 13.1851C401.73 16.003 398.254 17.3561 395.026 16.2388C391.327 14.9602 389.366 10.9257 390.644 7.22643C391.923 3.52712 395.958 1.56574 399.657 2.84436C400.414 3.10505 401.097 3.48988 401.693 3.94919C400.7 2.23609 400.439 0.113326 401.134 -1.89771C402.413 -5.5846 406.447 -7.54598 410.146 -6.27978C413.846 -5.00116 415.807 -0.966674 414.529 2.73264C413.833 4.75608 412.319 6.24574 410.482 6.99057ZM403.491 6.14465L407.6 7.51017L404.36 10.3405L403.491 6.14465Z" fill="#D9D9D9"/>
<path fill-rule="evenodd" clip-rule="evenodd" d="M425.861 13.7619C425.103 13.7619 424.334 13.6377 423.577 13.377C419.877 12.0984 417.916 8.06395 419.194 4.36464C420.473 0.665326 424.508 -1.29606 428.207 -0.0174335C431.434 1.09981 433.334 4.31498 432.924 7.56739C434.612 4.74946 438.088 3.39636 441.316 4.5136C445.015 5.79222 446.977 9.8267 445.698 13.526C444.419 17.2253 440.385 19.1867 436.685 17.9081C435.928 17.6474 435.245 17.2626 434.65 16.8033C435.643 18.5164 435.903 20.6391 435.208 22.6501C433.93 26.337 429.895 28.2984 426.196 27.0322C422.497 25.7536 420.535 21.7191 421.814 18.0198C422.509 15.9964 424.023 14.5067 425.861 13.7619ZM432.851 14.6078L428.742 13.2423L431.982 10.4119L432.851 14.6078Z" fill="#D9D9D9"/>
<path fill-rule="evenodd" clip-rule="evenodd" d="M459.698 24.0335C460.456 24.0335 461.225 24.1577 461.983 24.4184C465.682 25.697 467.643 29.7315 466.365 33.4308C465.086 37.1301 461.052 39.0915 457.352 37.8128C454.125 36.6956 452.225 33.4804 452.635 30.228C450.947 33.046 447.471 34.399 444.243 33.2818C440.544 32.0032 438.583 27.9687 439.861 24.2694C441.14 20.5701 445.174 18.6087 448.874 19.8873C449.631 20.148 450.314 20.5328 450.909 20.9922C449.916 19.2791 449.656 17.1563 450.351 15.1453C451.629 11.4584 455.664 9.49698 459.363 10.7632C463.063 12.0418 465.024 16.0763 463.745 19.7756C463.05 21.7991 461.536 23.2887 459.698 24.0335ZM452.708 23.1876L456.817 24.5531L453.577 27.3835L452.708 23.1876Z" fill="#D9D9D9"/>
<path fill-rule="evenodd" clip-rule="evenodd" d="M475.078 30.8048C474.321 30.8048 473.551 30.6807 472.794 30.42C469.094 29.1414 467.133 25.1069 468.412 21.4076C469.69 17.7083 473.725 15.7469 477.424 17.0255C480.652 18.1428 482.551 21.3579 482.141 24.6104C483.83 21.7924 487.306 20.4393 490.533 21.5566C494.232 22.8352 496.194 26.8697 494.915 30.569C493.637 34.2683 489.602 36.2297 485.903 34.9511C485.146 34.6904 484.463 34.3055 483.867 33.8462C484.86 35.5593 485.121 37.6821 484.426 39.6931C483.147 43.38 479.112 45.3414 475.413 44.0752C471.714 42.7966 469.752 38.7621 471.031 35.0628C471.726 33.0393 473.241 31.5497 475.078 30.8048ZM482.068 31.6508L477.96 30.2852L481.2 27.4549L482.068 31.6508Z" fill="#D9D9D9"/>
<path fill-rule="evenodd" clip-rule="evenodd" d="M508.916 41.0765C509.673 41.0765 510.443 41.2006 511.2 41.4613C514.899 42.74 516.861 46.7744 515.582 50.4737C514.303 54.1731 510.269 56.1344 506.57 54.8558C503.342 53.7386 501.443 50.5234 501.852 47.271C500.164 50.0889 496.688 51.442 493.461 50.3248C489.761 49.0462 487.8 45.0117 489.078 41.3124C490.357 37.6131 494.392 35.6517 498.091 36.9303C498.848 37.191 499.531 37.5758 500.127 38.0351C499.134 36.322 498.873 34.1993 499.568 32.1882C500.847 28.5013 504.881 26.54 508.581 27.8062C512.28 29.0848 514.241 33.1193 512.963 36.8186C512.267 38.842 510.753 40.3317 508.916 41.0765ZM501.925 40.2306L506.034 41.5961L502.794 44.4265L501.925 40.2306Z" fill="#D9D9D9"/>
<path fill-rule="evenodd" clip-rule="evenodd" d="M524.295 47.8478C523.537 47.8478 522.768 47.7237 522.011 47.463C518.311 46.1844 516.35 42.1499 517.629 38.4506C518.907 34.7513 522.942 32.7899 526.641 34.0685C529.869 35.1857 531.768 38.4009 531.358 41.6533C533.046 38.8354 536.522 37.4823 539.75 38.5995C543.449 39.8782 545.411 43.9126 544.132 47.6119C542.853 51.3113 538.819 53.2726 535.12 51.994C534.362 51.7333 533.68 51.3485 533.084 50.8892C534.077 52.6023 534.337 54.7251 533.642 56.7361C532.364 60.423 528.329 62.3844 524.63 61.1182C520.931 59.8395 518.969 55.8051 520.248 52.1057C520.943 50.0823 522.457 48.5926 524.295 47.8478ZM531.285 48.6937L527.176 47.3282L530.416 44.4979L531.285 48.6937Z" fill="#D9D9D9"/>
<path fill-rule="evenodd" clip-rule="evenodd" d="M268.754 -12.216C269.511 -12.216 270.281 -12.0918 271.038 -11.8311C274.737 -10.5525 276.698 -6.51805 275.42 -2.81874C274.141 0.880572 270.107 2.84195 266.407 1.56333C263.18 0.446091 261.281 -2.76908 261.69 -6.02149C260.002 -3.20356 256.526 -1.85046 253.298 -2.9677C249.599 -4.24632 247.638 -8.2808 248.916 -11.9801C250.195 -15.6794 254.229 -17.6408 257.929 -16.3622C258.686 -16.1015 259.369 -15.7167 259.965 -15.2574C258.972 -16.9705 258.711 -19.0932 259.406 -21.1043C260.685 -24.7911 264.719 -26.7525 268.418 -25.4863C272.118 -24.2077 274.079 -20.1732 272.801 -16.4739C272.105 -14.4505 270.591 -12.9608 268.754 -12.216ZM261.763 -13.0619L265.872 -11.6964L262.632 -8.86603L261.763 -13.0619Z" fill="#D9D9D9"/>
<path fill-rule="evenodd" clip-rule="evenodd" d="M284.133 -5.44467C283.375 -5.44467 282.606 -5.56881 281.848 -5.8295C278.149 -7.10812 276.188 -11.1426 277.466 -14.8419C278.745 -18.5412 282.78 -20.5026 286.479 -19.224C289.706 -18.1067 291.606 -14.8916 291.196 -11.6392C292.884 -14.4571 296.36 -15.8102 299.588 -14.6929C303.287 -13.4143 305.248 -9.37984 303.97 -5.68053C302.691 -1.98122 298.657 -0.0198399 294.957 -1.29846C294.2 -1.55915 293.517 -1.94398 292.922 -2.40329C293.915 -0.690187 294.175 1.43257 293.48 3.44361C292.202 7.1305 288.167 9.09188 284.468 7.82568C280.768 6.54705 278.807 2.51257 280.086 -1.18674C280.781 -3.21019 282.295 -4.69984 284.133 -5.44467ZM291.123 -4.59876L287.014 -5.96427L290.254 -8.79462L291.123 -4.59876Z" fill="#D9D9D9"/>
<path fill-rule="evenodd" clip-rule="evenodd" d="M317.97 4.82699C318.728 4.82699 319.497 4.95113 320.255 5.21182C323.954 6.49044 325.915 10.5249 324.637 14.2242C323.358 17.9235 319.324 19.8849 315.624 18.6063C312.397 17.4891 310.497 14.2739 310.907 11.0215C309.219 13.8394 305.743 15.1925 302.515 14.0753C298.816 12.7966 296.855 8.76217 298.133 5.06286C299.412 1.36354 303.446 -0.597836 307.146 0.680785C307.903 0.941474 308.586 1.3263 309.181 1.78561C308.188 0.0725111 307.928 -2.05025 308.623 -4.06128C309.901 -7.74818 313.936 -9.70956 317.635 -8.44335C321.335 -7.16473 323.296 -3.13025 322.017 0.569062C321.322 2.59251 319.808 4.08217 317.97 4.82699ZM310.98 3.98108L315.089 5.3466L311.849 8.17694L310.98 3.98108Z" fill="#D9D9D9"/>
<path fill-rule="evenodd" clip-rule="evenodd" d="M333.35 11.5983C332.593 11.5983 331.823 11.4742 331.066 11.2135C327.366 9.93485 325.405 5.90037 326.684 2.20106C327.962 -1.49825 331.997 -3.45963 335.696 -2.18101C338.924 -1.06377 340.823 2.1514 340.413 5.40382C342.102 2.58589 345.577 1.23279 348.805 2.35003C352.504 3.62865 354.466 7.66313 353.187 11.3624C351.909 15.0617 347.874 17.0231 344.175 15.7445C343.417 15.4838 342.735 15.099 342.139 14.6397C343.132 16.3528 343.393 18.4755 342.697 20.4866C341.419 24.1735 337.384 26.1349 333.685 24.8686C329.986 23.59 328.024 19.5555 329.303 15.8562C329.998 13.8328 331.513 12.3431 333.35 11.5983ZM340.34 12.4442L336.231 11.0787L339.471 8.24835L340.34 12.4442Z" fill="#D9D9D9"/>
<path fill-rule="evenodd" clip-rule="evenodd" d="M367.188 21.87C367.945 21.87 368.715 21.9941 369.472 22.2548C373.171 23.5334 375.133 27.5679 373.854 31.2672C372.575 34.9665 368.541 36.9279 364.841 35.6493C361.614 34.532 359.715 31.3169 360.124 28.0644C358.436 30.8824 354.96 32.2355 351.733 31.1182C348.033 29.8396 346.072 25.8051 347.35 22.1058C348.629 18.4065 352.664 16.4451 356.363 17.7238C357.12 17.9844 357.803 18.3693 358.399 18.8286C357.406 17.1155 357.145 14.9927 357.84 12.9817C359.119 9.29479 363.153 7.33341 366.853 8.59962C370.552 9.87824 372.513 13.9127 371.235 17.612C370.539 19.6355 369.025 21.1251 367.188 21.87ZM360.197 21.024L364.306 22.3896L361.066 25.2199L360.197 21.024Z" fill="#D9D9D9"/>
<path fill-rule="evenodd" clip-rule="evenodd" d="M382.567 28.6413C381.809 28.6413 381.04 28.5171 380.283 28.2564C376.583 26.9778 374.622 22.9433 375.9 19.244C377.179 15.5447 381.214 13.5833 384.913 14.862C388.14 15.9792 390.04 19.1944 389.63 22.4468C391.318 19.6289 394.794 18.2758 398.022 19.393C401.721 20.6716 403.683 24.7061 402.404 28.4054C401.125 32.1047 397.091 34.0661 393.392 32.7875C392.634 32.5268 391.952 32.142 391.356 31.6826C392.349 33.3958 392.609 35.5185 391.914 37.5295C390.636 41.2164 386.601 43.1778 382.902 41.9116C379.203 40.633 377.241 36.5985 378.52 32.8992C379.215 30.8758 380.729 29.3861 382.567 28.6413ZM389.557 29.4872L385.448 28.1217L388.688 25.2913L389.557 29.4872Z" fill="#D9D9D9"/>
<path fill-rule="evenodd" clip-rule="evenodd" d="M416.404 38.9124C417.162 38.9124 417.931 39.0366 418.689 39.2973C422.388 40.5759 424.349 44.6104 423.071 48.3097C421.792 52.009 417.758 53.9704 414.058 52.6917C410.831 51.5745 408.931 48.3593 409.341 45.1069C407.653 47.9249 404.177 49.278 400.949 48.1607C397.25 46.8821 395.289 42.8476 396.567 39.1483C397.846 35.449 401.88 33.4876 405.58 34.7662C406.337 35.0269 407.02 35.4118 407.616 35.8711C406.622 34.158 406.362 32.0352 407.057 30.0242C408.336 26.3373 412.37 24.3759 416.069 25.6421C419.769 26.9207 421.73 30.9552 420.451 34.6545C419.756 36.678 418.242 38.1676 416.404 38.9124ZM409.414 38.0665L413.523 39.432L410.283 42.2624L409.414 38.0665Z" fill="#D9D9D9"/>
<path fill-rule="evenodd" clip-rule="evenodd" d="M431.784 45.6842C431.027 45.6842 430.257 45.5601 429.5 45.2994C425.801 44.0208 423.839 39.9863 425.118 36.287C426.396 32.5877 430.431 30.6263 434.13 31.9049C437.358 33.0222 439.257 36.2373 438.847 39.4898C440.536 36.6718 444.012 35.3187 447.239 36.436C450.938 37.7146 452.9 41.7491 451.621 45.4484C450.343 49.1477 446.308 51.1091 442.609 49.8304C441.852 49.5698 441.169 49.1849 440.573 48.7256C441.566 50.4387 441.827 52.5615 441.132 54.5725C439.853 58.2594 435.818 60.2208 432.119 58.9546C428.42 57.676 426.458 53.6415 427.737 49.9422C428.432 47.9187 429.947 46.4291 431.784 45.6842ZM438.775 46.5301L434.666 45.1646L437.906 42.3343L438.775 46.5301Z" fill="#D9D9D9"/>
<path fill-rule="evenodd" clip-rule="evenodd" d="M195.141 -7.83609C195.899 -7.83609 196.668 -7.71195 197.425 -7.45126C201.125 -6.17264 203.086 -2.13817 201.808 1.56114C200.529 5.26045 196.494 7.22184 192.795 5.94321C189.568 4.82597 187.668 1.6108 188.078 -1.64161C186.39 1.17632 182.914 2.52942 179.686 1.41218C175.987 0.13356 174.025 -3.90092 175.304 -7.60023C176.583 -11.2995 180.617 -13.2609 184.316 -11.9823C185.074 -11.7216 185.756 -11.3368 186.352 -10.8775C185.359 -12.5906 185.099 -14.7133 185.794 -16.7244C187.072 -20.4113 191.107 -22.3726 194.806 -21.1064C198.505 -19.8278 200.467 -15.7933 199.188 -12.094C198.493 -10.0706 196.979 -8.58092 195.141 -7.83609ZM188.151 -8.68201L192.26 -7.31649L189.02 -4.48614L188.151 -8.68201Z" fill="#D9D9D9"/>
<path fill-rule="evenodd" clip-rule="evenodd" d="M210.52 -1.06479C209.763 -1.06479 208.993 -1.18892 208.236 -1.44961C204.537 -2.72824 202.575 -6.76271 203.854 -10.462C205.133 -14.1613 209.167 -16.1227 212.867 -14.8441C216.094 -13.7269 217.993 -10.5117 217.584 -7.25927C219.272 -10.0772 222.748 -11.4303 225.975 -10.3131C229.675 -9.03444 231.636 -4.99996 230.358 -1.30065C229.079 2.39866 225.044 4.36004 221.345 3.08142C220.588 2.82073 219.905 2.4359 219.309 1.97659C220.302 3.6897 220.563 5.81246 219.868 7.82349C218.589 11.5104 214.555 13.4718 210.855 12.2056C207.156 10.9269 205.195 6.89246 206.473 3.19315C207.169 1.1697 208.683 -0.319959 210.52 -1.06479ZM217.511 -0.218874L213.402 -1.58439L216.642 -4.41474L217.511 -0.218874Z" fill="#D9D9D9"/>
<path fill-rule="evenodd" clip-rule="evenodd" d="M244.358 9.20688C245.115 9.20688 245.885 9.33101 246.642 9.5917C250.342 10.8703 252.303 14.9048 251.024 18.6041C249.746 22.3034 245.711 24.2648 242.012 22.9862C238.784 21.8689 236.885 18.6538 237.295 15.4014C235.606 18.2193 232.131 19.5724 228.903 18.4551C225.204 17.1765 223.242 13.142 224.521 9.44274C225.799 5.74343 229.834 3.78205 233.533 5.06067C234.291 5.32136 234.973 5.70619 235.569 6.1655C234.576 4.45239 234.315 2.32963 235.011 0.3186C236.289 -3.3683 240.324 -5.32968 244.023 -4.06347C247.722 -2.78485 249.684 1.24963 248.405 4.94894C247.71 6.97239 246.195 8.46205 244.358 9.20688ZM237.368 8.36096L241.477 9.72648L238.237 12.5568L237.368 8.36096Z" fill="#D9D9D9"/>
<path fill-rule="evenodd" clip-rule="evenodd" d="M259.738 15.9782C258.98 15.9782 258.211 15.854 257.453 15.5934C253.754 14.3147 251.793 10.2803 253.071 6.58094C254.35 2.88163 258.384 0.920253 262.084 2.19888C265.311 3.31612 267.211 6.53129 266.801 9.7837C268.489 6.96577 271.965 5.61267 275.193 6.72991C278.892 8.00853 280.853 12.043 279.575 15.7423C278.296 19.4416 274.262 21.403 270.562 20.1244C269.805 19.8637 269.122 19.4789 268.527 19.0196C269.52 20.7327 269.78 22.8554 269.085 24.8665C267.807 28.5534 263.772 30.5147 260.073 29.2485C256.373 27.9699 254.412 23.9354 255.691 20.2361C256.386 18.2127 257.9 16.723 259.738 15.9782ZM266.728 16.8241L262.619 15.4586L265.859 12.6282L266.728 16.8241Z" fill="#D9D9D9"/>
<path fill-rule="evenodd" clip-rule="evenodd" d="M293.575 26.2498C294.333 26.2498 295.102 26.374 295.86 26.6347C299.559 27.9133 301.52 31.9478 300.242 35.6471C298.963 39.3464 294.928 41.3078 291.229 40.0292C288.002 38.9119 286.102 35.6967 286.512 32.4443C284.824 35.2623 281.348 36.6154 278.12 35.4981C274.421 34.2195 272.46 30.185 273.738 26.4857C275.017 22.7864 279.051 20.825 282.751 22.1036C283.508 22.3643 284.191 22.7492 284.786 23.2085C283.793 21.4954 283.533 19.3726 284.228 17.3616C285.506 13.6747 289.541 11.7133 293.24 12.9795C296.94 14.2581 298.901 18.2926 297.622 21.9919C296.927 24.0154 295.413 25.505 293.575 26.2498ZM286.585 25.4039L290.694 26.7694L287.454 29.5998L286.585 25.4039Z" fill="#D9D9D9"/>
<path fill-rule="evenodd" clip-rule="evenodd" d="M308.954 33.0212C308.197 33.0212 307.427 32.897 306.67 32.6363C302.971 31.3577 301.01 27.3232 302.288 23.6239C303.567 19.9246 307.601 17.9632 311.301 19.2418C314.528 20.3591 316.427 23.5743 316.018 26.8267C317.706 24.0087 321.182 22.6556 324.41 23.7729C328.109 25.0515 330.07 29.086 328.792 32.7853C327.513 36.4846 323.479 38.446 319.779 37.1674C319.022 36.9067 318.339 36.5218 317.743 36.0625C318.736 37.7756 318.997 39.8984 318.302 41.9094C317.023 45.5963 312.989 47.5577 309.29 46.2915C305.59 45.0129 303.629 40.9784 304.908 37.2791C305.603 35.2556 307.117 33.766 308.954 33.0212ZM315.945 33.8671L311.836 32.5015L315.076 29.6712L315.945 33.8671Z" fill="#D9D9D9"/>
<path fill-rule="evenodd" clip-rule="evenodd" d="M342.792 43.2928C343.549 43.2928 344.319 43.417 345.076 43.6776C348.776 44.9563 350.737 48.9907 349.458 52.6901C348.18 56.3894 344.145 58.3507 340.446 57.0721C337.218 55.9549 335.319 52.7397 335.729 49.4873C334.04 52.3052 330.565 53.6583 327.337 52.5411C323.638 51.2625 321.676 47.228 322.955 43.5287C324.234 39.8294 328.268 37.868 331.967 39.1466C332.725 39.4073 333.407 39.7921 334.003 40.2514C333.01 38.5383 332.749 36.4156 333.445 34.4045C334.723 30.7176 338.758 28.7563 342.457 30.0225C346.156 31.3011 348.118 35.3356 346.839 39.0349C346.144 41.0583 344.629 42.548 342.792 43.2928ZM335.802 42.4469L339.911 43.8124L336.671 46.6428L335.802 42.4469Z" fill="#D9D9D9"/>
<path fill-rule="evenodd" clip-rule="evenodd" d="M358.172 50.0641C357.414 50.0641 356.645 49.94 355.888 49.6793C352.188 48.4007 350.227 44.3662 351.505 40.6669C352.784 36.9676 356.819 35.0062 360.518 36.2848C363.745 37.4021 365.645 40.6172 365.235 43.8696C366.923 41.0517 370.399 39.6986 373.627 40.8158C377.326 42.0945 379.288 46.1289 378.009 49.8283C376.73 53.5276 372.696 55.4889 368.997 54.2103C368.239 53.9496 367.557 53.5648 366.961 53.1055C367.954 54.8186 368.214 56.9414 367.519 58.9524C366.241 62.6393 362.206 64.6007 358.507 63.3345C354.808 62.0558 352.846 58.0214 354.125 54.3221C354.82 52.2986 356.334 50.8089 358.172 50.0641ZM365.162 50.91L361.053 49.5445L364.293 46.7142L365.162 50.91Z" fill="#D9D9D9"/>
<path fill-rule="evenodd" clip-rule="evenodd" d="M102.63 -9.99967C103.387 -9.99967 104.156 -9.87553 104.914 -9.61484C108.613 -8.33622 110.574 -4.30174 109.296 -0.602429C108.017 3.09688 103.983 5.05826 100.283 3.77964C97.0558 2.6624 95.1565 -0.55277 95.5661 -3.80518C93.8779 -0.987252 90.402 0.365847 87.1744 -0.751394C83.4751 -2.03001 81.5137 -6.06449 82.7923 -9.76381C84.071 -13.4631 88.1055 -15.4245 91.8048 -14.1459C92.562 -13.8852 93.2448 -13.5004 93.8406 -13.041C92.8475 -14.7541 92.5868 -16.8769 93.282 -18.8879C94.5606 -22.5748 98.5951 -24.5362 102.294 -23.27C105.994 -21.9914 107.955 -17.9569 106.676 -14.2576C105.981 -12.2341 104.467 -10.7445 102.63 -9.99967ZM95.639 -10.8456L99.748 -9.48006L96.508 -6.64972L95.639 -10.8456Z" fill="#D9D9D9"/>
<path fill-rule="evenodd" clip-rule="evenodd" d="M118.009 -3.22836C117.252 -3.22836 116.482 -3.3525 115.725 -3.61319C112.026 -4.89181 110.064 -8.92629 111.343 -12.6256C112.621 -16.3249 116.656 -18.2863 120.355 -17.0077C123.583 -15.8904 125.482 -12.6753 125.073 -9.42284C126.761 -12.2408 130.237 -13.5939 133.464 -12.4766C137.164 -11.198 139.125 -7.16353 137.846 -3.46422C136.568 0.235088 132.533 2.19647 128.834 0.917848C128.077 0.657158 127.394 0.272328 126.798 -0.186982C127.791 1.52612 128.052 3.64888 127.357 5.65992C126.078 9.34681 122.044 11.3082 118.344 10.042C114.645 8.76336 112.684 4.72888 113.962 1.02957C114.657 -0.993878 116.172 -2.48353 118.009 -3.22836ZM125 -2.38245L120.891 -3.74797L124.131 -6.57831L125 -2.38245Z" fill="#D9D9D9"/>
<path fill-rule="evenodd" clip-rule="evenodd" d="M151.847 7.0433C152.604 7.0433 153.374 7.16744 154.131 7.42813C157.83 8.70675 159.792 12.7412 158.513 16.4405C157.234 20.1398 153.2 22.1012 149.501 20.8226C146.273 19.7054 144.374 16.4902 144.783 13.2378C143.095 16.0557 139.619 17.4088 136.392 16.2916C132.692 15.013 130.731 10.9785 132.01 7.27916C133.288 3.57985 137.323 1.61847 141.022 2.89709C141.779 3.15778 142.462 3.54261 143.058 4.00192C142.065 2.28882 141.804 0.16606 142.499 -1.84497C143.778 -5.53187 147.812 -7.49325 151.512 -6.22704C155.211 -4.94842 157.172 -0.913939 155.894 2.78537C155.199 4.80882 153.684 6.29847 151.847 7.0433ZM144.856 6.19739L148.965 7.56291L145.725 10.3933L144.856 6.19739Z" fill="#D9D9D9"/>
<path fill-rule="evenodd" clip-rule="evenodd" d="M167.226 13.8146C166.469 13.8146 165.699 13.6905 164.942 13.4298C161.242 12.1512 159.281 8.11668 160.56 4.41737C161.838 0.718061 165.873 -1.24332 169.572 0.0353009C172.8 1.15254 174.699 4.36771 174.289 7.62013C175.978 4.80219 179.453 3.44909 182.681 4.56634C186.38 5.84496 188.342 9.87944 187.063 13.5787C185.784 17.2781 181.75 19.2394 178.051 17.9608C177.293 17.7001 176.611 17.3153 176.015 16.856C177.008 18.5691 177.269 20.6918 176.573 22.7029C175.295 26.3898 171.26 28.3512 167.561 27.085C163.862 25.8063 161.9 21.7718 163.179 18.0725C163.874 16.0491 165.389 14.5594 167.226 13.8146ZM174.216 14.6605L170.107 13.295L173.347 10.4647L174.216 14.6605Z" fill="#D9D9D9"/>
<path fill-rule="evenodd" clip-rule="evenodd" d="M201.064 24.0863C201.821 24.0863 202.591 24.2104 203.348 24.4711C207.047 25.7497 209.008 29.7842 207.73 33.4835C206.451 37.1828 202.417 39.1442 198.717 37.8656C195.49 36.7483 193.591 33.5332 194 30.2808C192.312 33.0987 188.836 34.4518 185.608 33.3345C181.909 32.0559 179.948 28.0214 181.226 24.3221C182.505 20.6228 186.54 18.6614 190.239 19.9401C190.996 20.2008 191.679 20.5856 192.275 21.0449C191.282 19.3318 191.021 17.209 191.716 15.198C192.995 11.5111 197.029 9.54972 200.728 10.8159C204.428 12.0945 206.389 16.129 205.111 19.8283C204.415 21.8518 202.901 23.3414 201.064 24.0863ZM194.073 23.2404L198.182 24.6059L194.942 27.4362L194.073 23.2404Z" fill="#D9D9D9"/>
<path fill-rule="evenodd" clip-rule="evenodd" d="M216.443 30.8576C215.686 30.8576 214.916 30.7334 214.159 30.4727C210.46 29.1941 208.498 25.1596 209.777 21.4603C211.056 17.761 215.09 15.7996 218.789 17.0783C222.017 18.1955 223.916 21.4107 223.507 24.6631C225.195 21.8452 228.671 20.4921 231.898 21.6093C235.598 22.8879 237.559 26.9224 236.28 30.6217C235.002 34.321 230.967 36.2824 227.268 35.0038C226.511 34.7431 225.828 34.3583 225.232 33.899C226.225 35.6121 226.486 37.7348 225.791 39.7459C224.512 43.4327 220.478 45.3941 216.778 44.1279C213.079 42.8493 211.118 38.8148 212.396 35.1155C213.091 33.0921 214.606 31.6024 216.443 30.8576ZM223.434 31.7035L219.325 30.338L222.565 27.5076L223.434 31.7035Z" fill="#D9D9D9"/>
<path fill-rule="evenodd" clip-rule="evenodd" d="M250.281 41.1292C251.038 41.1292 251.808 41.2534 252.565 41.5141C256.264 42.7927 258.226 46.8272 256.947 50.5265C255.669 54.2258 251.634 56.1872 247.935 54.9085C244.707 53.7913 242.808 50.5761 243.218 47.3237C241.529 50.1417 238.053 51.4948 234.826 50.3775C231.126 49.0989 229.165 45.0644 230.444 41.3651C231.722 37.6658 235.757 35.7044 239.456 36.983C240.213 37.2437 240.896 37.6286 241.492 38.0879C240.499 36.3748 240.238 34.252 240.933 32.241C242.212 28.5541 246.246 26.5927 249.946 27.8589C253.645 29.1375 255.606 33.172 254.328 36.8713C253.633 38.8948 252.118 40.3844 250.281 41.1292ZM243.29 40.2833L247.399 41.6488L244.159 44.4792L243.29 40.2833Z" fill="#D9D9D9"/>
<path fill-rule="evenodd" clip-rule="evenodd" d="M265.66 47.9005C264.903 47.9005 264.133 47.7764 263.376 47.5157C259.677 46.2371 257.715 42.2026 258.994 38.5033C260.272 34.804 264.307 32.8426 268.006 34.1212C271.234 35.2385 273.133 38.4536 272.723 41.7061C274.412 38.8881 277.888 37.535 281.115 38.6523C284.814 39.9309 286.776 43.9654 285.497 47.6647C284.219 51.364 280.184 53.3254 276.485 52.0468C275.728 51.7861 275.045 51.4012 274.449 50.9419C275.442 52.655 275.703 54.7778 275.008 56.7888C273.729 60.4757 269.694 62.4371 265.995 61.1709C262.296 59.8923 260.334 55.8578 261.613 52.1585C262.308 50.135 263.823 48.6454 265.66 47.9005ZM272.651 48.7465L268.542 47.3809L271.782 44.5506L272.651 48.7465Z" fill="#D9D9D9"/>
<path fill-rule="evenodd" clip-rule="evenodd" d="M78.2346 11.4232C78.9918 11.4232 79.7615 11.5473 80.5187 11.808C84.218 13.0866 86.1794 17.1211 84.9008 20.8204C83.6222 24.5197 79.5877 26.4811 75.8884 25.2025C72.6608 24.0853 70.7615 20.8701 71.1711 17.6177C69.4828 20.4356 66.007 21.7887 62.7794 20.6715C59.0801 19.3928 57.1187 15.3584 58.3973 11.659C59.6759 7.95974 63.7104 5.99836 67.4097 7.27698C68.167 7.53767 68.8497 7.9225 69.4456 8.38181C68.4525 6.6687 68.1918 4.54594 68.887 2.53491C70.1656 -1.15199 74.2001 -3.11337 77.8994 -1.84716C81.5987 -0.568539 83.5601 3.46594 82.2815 7.16525C81.5863 9.1887 80.0718 10.6784 78.2346 11.4232ZM71.244 10.5773L75.353 11.9428L72.113 14.7731L71.244 10.5773Z" fill="#D9D9D9"/>
<path fill-rule="evenodd" clip-rule="evenodd" d="M93.6136 18.195C92.8563 18.195 92.0867 18.0708 91.3294 17.8102C87.6301 16.5315 85.6687 12.4971 86.9474 8.79774C88.226 5.09843 92.2605 3.13705 95.9598 4.41567C99.1874 5.53291 101.087 8.74808 100.677 12.0005C102.365 9.18256 105.841 7.82947 109.069 8.94671C112.768 10.2253 114.729 14.2598 113.451 17.9591C112.172 21.6584 108.138 23.6198 104.438 22.3412C103.681 22.0805 102.998 21.6957 102.403 21.2364C103.396 22.9495 103.656 25.0722 102.961 27.0833C101.683 30.7702 97.6481 32.7315 93.9487 31.4653C90.2494 30.1867 88.2881 26.1522 89.5667 22.4529C90.2619 20.4295 91.7763 18.9398 93.6136 18.195ZM100.604 19.0409L96.4952 17.6754L99.7352 14.845L100.604 19.0409Z" fill="#D9D9D9"/>
<path fill-rule="evenodd" clip-rule="evenodd" d="M127.451 28.4662C128.209 28.4662 128.978 28.5903 129.736 28.851C133.435 30.1296 135.396 34.1641 134.118 37.8634C132.839 41.5627 128.804 43.5241 125.105 42.2455C121.878 41.1282 119.978 37.9131 120.388 34.6606C118.7 37.4786 115.224 38.8317 111.996 37.7144C108.297 36.4358 106.336 32.4013 107.614 28.702C108.893 25.0027 112.927 23.0413 116.627 24.3199C117.384 24.5806 118.067 24.9655 118.662 25.4248C117.669 23.7117 117.409 21.5889 118.104 19.5779C119.382 15.891 123.417 13.9296 127.116 15.1958C130.816 16.4744 132.777 20.5089 131.498 24.2082C130.803 26.2317 129.289 27.7213 127.451 28.4662ZM120.461 27.6202L124.57 28.9858L121.33 31.8161L120.461 27.6202Z" fill="#D9D9D9"/>
<path fill-rule="evenodd" clip-rule="evenodd" d="M142.831 35.2375C142.074 35.2375 141.304 35.1133 140.547 34.8526C136.847 33.574 134.886 29.5395 136.165 25.8402C137.443 22.1409 141.478 20.1795 145.177 21.4582C148.405 22.5754 150.304 25.7906 149.894 29.043C151.583 26.225 155.058 24.8719 158.286 25.9892C161.985 27.2678 163.947 31.3023 162.668 35.0016C161.389 38.7009 157.355 40.6623 153.656 39.3837C152.898 39.123 152.216 38.7381 151.62 38.2788C152.613 39.9919 152.874 42.1147 152.178 44.1257C150.9 47.8126 146.865 49.774 143.166 48.5078C139.467 47.2292 137.505 43.1947 138.784 39.4954C139.479 37.4719 140.994 35.9823 142.831 35.2375ZM149.821 36.0834L145.712 34.7179L148.952 31.8875L149.821 36.0834Z" fill="#D9D9D9"/>
<path fill-rule="evenodd" clip-rule="evenodd" d="M176.669 45.5091C177.426 45.5091 178.196 45.6333 178.953 45.894C182.652 47.1726 184.613 51.207 183.335 54.9064C182.056 58.6057 178.022 60.5671 174.322 59.2884C171.095 58.1712 169.196 54.956 169.605 51.7036C167.917 54.5215 164.441 55.8746 161.213 54.7574C157.514 53.4788 155.553 49.4443 156.831 45.745C158.11 42.0457 162.145 40.0843 165.844 41.3629C166.601 41.6236 167.284 42.0084 167.88 42.4677C166.887 40.7546 166.626 38.6319 167.321 36.6208C168.6 32.9339 172.634 30.9726 176.333 32.2388C180.033 33.5174 181.994 37.5519 180.716 41.2512C180.02 43.2746 178.506 44.7643 176.669 45.5091ZM169.678 44.6632L173.787 46.0287L170.547 48.8591L169.678 44.6632Z" fill="#D9D9D9"/>
<path fill-rule="evenodd" clip-rule="evenodd" d="M50.3196 33.0734C49.5624 33.0734 48.7927 32.9493 48.0355 32.6886C44.3362 31.4099 42.3748 27.3755 43.6534 23.6762C44.932 19.9768 48.9665 18.0155 52.6658 19.2941C55.8934 20.4113 57.7927 23.6265 57.3831 26.8789C59.0714 24.061 62.5472 22.7079 65.7748 23.8251C69.4741 25.1037 71.4355 29.1382 70.1569 32.8375C68.8782 36.5368 64.8438 38.4982 61.1445 37.2196C60.3872 36.9589 59.7045 36.5741 59.1086 36.1148C60.1017 37.8279 60.3624 39.9506 59.6672 41.9617C58.3886 45.6486 54.3541 47.6099 50.6548 46.3437C46.9555 45.0651 44.9941 41.0306 46.2727 37.3313C46.9679 35.3079 48.4824 33.8182 50.3196 33.0734ZM57.3102 33.9193L53.2012 32.5538L56.4412 29.7234L57.3102 33.9193Z" fill="#D9D9D9"/>
<path fill-rule="evenodd" clip-rule="evenodd" d="M84.1574 43.3451C84.9147 43.3451 85.6843 43.4692 86.4416 43.7299C90.1409 45.0085 92.1022 49.043 90.8236 52.7423C89.545 56.4416 85.5105 58.403 81.8112 57.1244C78.5836 56.0071 76.6843 52.792 77.094 49.5395C75.4057 52.3575 71.9298 53.7106 68.7022 52.5933C65.0029 51.3147 63.0416 47.2802 64.3202 43.5809C65.5988 39.8816 69.6333 37.9202 73.3326 39.1989C74.0898 39.4595 74.7726 39.8444 75.3685 40.3037C74.3754 38.5906 74.1147 36.4678 74.8098 34.4568C76.0885 30.7699 80.1229 28.8085 83.8222 30.0747C87.5216 31.3533 89.4829 35.3878 88.2043 39.0871C87.5091 41.1106 85.9947 42.6002 84.1574 43.3451ZM77.1669 42.4991L81.2758 43.8647L78.0358 46.695L77.1669 42.4991Z" fill="#D9D9D9"/>
<path fill-rule="evenodd" clip-rule="evenodd" d="M99.5369 50.1164C98.7797 50.1164 98.01 49.9922 97.2528 49.7315C93.5535 48.4529 91.5921 44.4184 92.8707 40.7191C94.1493 37.0198 98.1838 35.0584 101.883 36.3371C105.111 37.4543 107.01 40.6695 106.6 43.9219C108.289 41.104 111.765 39.7509 114.992 40.8681C118.691 42.1467 120.653 46.1812 119.374 49.8805C118.096 53.5798 114.061 55.5412 110.362 54.2626C109.605 54.0019 108.922 53.6171 108.326 53.1577C109.319 54.8708 109.58 56.9936 108.885 59.0046C107.606 62.6915 103.571 64.6529 99.8721 63.3867C96.1728 62.1081 94.2114 58.0736 95.49 54.3743C96.1852 52.3508 97.6997 50.8612 99.5369 50.1164ZM106.527 50.9623L102.419 49.5968L105.659 46.7664L106.527 50.9623Z" fill="#D9D9D9"/>
</svg>
